<?xml version="1.0" encoding="UTF-8" standalone="no"?>
<!-- Created with Inkscape (http://www.inkscape.org/) -->

<svg
   xmlns:dc="http://purl.org/dc/elements/1.1/"
   xmlns:cc="http://creativecommons.org/ns#"
   xmlns:rdf="http://www.w3.org/1999/02/22-rdf-syntax-ns#"
   xmlns:svg="http://www.w3.org/2000/svg"
   xmlns="http://www.w3.org/2000/svg"
   xmlns:sodipodi="http://sodipodi.sourceforge.net/DTD/sodipodi-0.dtd"
   xmlns:inkscape="http://www.inkscape.org/namespaces/inkscape"
   width="210mm"
   height="297mm"
   id="svg2"
   version="1.1"
   inkscape:version="0.48.5 r10040"
   inkscape:export-filename="/Users/mkl/meteor/plp/plp-meteor/public/image/plp.png"
   inkscape:export-xdpi="90"
   inkscape:export-ydpi="90"
   sodipodi:docname="plp_meteor.svg">
  <defs
     id="defs4" />
  <sodipodi:namedview
     id="base"
     pagecolor="#ffffff"
     bordercolor="#666666"
     borderopacity="1.0"
     inkscape:pageopacity="0.0"
     inkscape:pageshadow="2"
     inkscape:zoom="1.8101934"
     inkscape:cx="58.394556"
     inkscape:cy="1083.0578"
     inkscape:document-units="px"
     inkscape:current-layer="layer1"
     showgrid="true"
     inkscape:window-width="1229"
     inkscape:window-height="662"
     inkscape:window-x="0"
     inkscape:window-y="0"
     inkscape:window-maximized="0">
    <inkscape:grid
       type="xygrid"
       id="grid2985"
       empspacing="5"
       visible="true"
       enabled="true"
       snapvisiblegridlinesonly="true" />
  </sodipodi:namedview>
  <metadata
     id="metadata7">
    <rdf:RDF>
      <cc:Work
         rdf:about="">
        <dc:format>image/svg+xml</dc:format>
        <dc:type
           rdf:resource="http://purl.org/dc/dcmitype/StillImage" />
        <dc:title></dc:title>
      </cc:Work>
    </rdf:RDF>
  </metadata>
  <g
     inkscape:label="Calque 1"
     inkscape:groupmode="layer"
     id="layer1">
    <g
       id="g5213" />
    <rect
       id="rect4436-1"
       width="60"
       height="60"
       x="10"
       y="12.362183"
       style="fill:#0c5aa6;fill-opacity:1"
       inkscape:export-filename="/Users/mkl/Desktop/plp_meteor.png"
       inkscape:export-xdpi="90"
       inkscape:export-ydpi="90" />
    <g
       transform="translate(72.15625,-232.22532)"
       style="font-size:28px;font-style:normal;font-variant:normal;font-weight:bold;font-stretch:normal;text-align:start;line-height:125%;letter-spacing:0px;word-spacing:0px;writing-mode:lr-tb;text-anchor:start;fill:#0c5aa6;fill-opacity:1;stroke:none;font-family:STSong;-inkscape-font-specification:STSong Bold"
       id="flowRoot2987-5">
      <path
         d="m 23.30575,249.5175 c 0.718665,2e-5 1.319998,2e-5 1.804,0 0.483997,-0.0147 0.850664,-0.0293 1.1,-0.044 l 3.124,-0.176 c 0.117327,-0.0147 0.227327,-0.022 0.33,-0.022 0.117326,2e-5 0.23466,2e-5 0.352,0 0.821325,2e-5 1.525325,0.11735 2.112,0.352 0.586657,0.23468 1.063323,0.54268 1.43,0.924 0.381322,0.36668 0.652655,0.79935 0.814,1.298 0.175988,0.48401 0.263988,0.97535 0.264,1.474 -1.2e-5,0.57201 -0.110012,1.10734 -0.33,1.606 -0.220011,0.49868 -0.528011,0.93868 -0.924,1.32 -0.381343,0.36667 -0.83601,0.66001 -1.364,0.88 -0.513342,0.20534 -1.070675,0.30801 -1.672,0.308 -0.924007,10e-6 -1.628006,-0.28599 -2.112,-0.858 l 0.132,-0.132 c 0.366661,0.13201 0.76266,0.19801 1.188,0.198 0.439993,10e-6 0.850659,-0.0733 1.232,-0.22 0.395992,-0.16133 0.733325,-0.38132 1.012,-0.66 0.293324,-0.27866 0.520657,-0.61599 0.682,-1.012 0.161324,-0.39599 0.24199,-0.83599 0.242,-1.32 -1e-5,-0.41066 -0.06601,-0.80665 -0.198,-1.188 -0.13201,-0.38132 -0.330009,-0.72599 -0.594,-1.034 -0.264009,-0.30799 -0.601342,-0.57199 -1.012,-0.792 -0.396008,-0.21999 -0.865341,-0.36665 -1.408,-0.44 -0.308006,-0.044 -0.652673,-0.066 -1.034,-0.066 -0.498672,1e-5 -0.887338,0.0587 -1.166,0.176 l 0,11.836 c -4e-6,0.22 0.04399,0.38134 0.132,0.484 0.102662,0.088 0.315328,0.16867 0.638,0.242 l 1.606,0.352 0,0.352 c -0.616006,-0.0293 -1.158672,-0.0513 -1.628,-0.066 -0.454671,-0.0147 -0.843338,-0.022 -1.166,-0.022 -0.63067,0 -1.679336,0.022 -3.146,0.066 l 0,-0.352 1.232,-0.176 c 0.219998,-0.044 0.366664,-0.12466 0.44,-0.242 0.07333,-0.11733 0.109997,-0.31533 0.11,-0.594 l 0,-10.494 c -3e-6,-0.55732 -0.176003,-0.93132 -0.528,-1.122 -0.337335,-0.19065 -0.902001,-0.32999 -1.694,-0.418 l 0,-0.418"
         style="font-size:22px;fill:#0c5aa6"
         id="path5862"
         inkscape:connector-curvature="0" />
      <path
         d="m 40.739719,263.6195 c -0.645338,0 -1.246671,-0.11 -1.804,-0.33 -0.557337,-0.23467 -1.041336,-0.55 -1.452,-0.946 -0.410669,-0.41066 -0.740668,-0.89466 -0.99,-1.452 -0.234668,-0.55733 -0.352001,-1.166 -0.352,-1.826 -1e-6,-0.67466 0.117332,-1.29066 0.352,-1.848 0.249332,-0.55733 0.586665,-1.03399 1.012,-1.43 0.42533,-0.41066 0.923997,-0.72599 1.496,-0.946 0.586662,-0.23466 1.224661,-0.35199 1.914,-0.352 0.703993,1e-5 1.341993,0.12468 1.914,0.374 0.571992,0.23468 1.063324,0.56468 1.474,0.99 0.425324,0.41067 0.74799,0.90201 0.968,1.474 0.234656,0.55734 0.351989,1.15134 0.352,1.782 -1.1e-5,0.63067 -0.124677,1.22467 -0.374,1.782 -0.234677,0.54267 -0.57201,1.01934 -1.012,1.43 -0.425342,0.396 -0.938675,0.71133 -1.54,0.946 -0.60134,0.23467 -1.254006,0.352 -1.958,0.352 m -3.014,-4.378 c -3e-6,1.232 0.285997,2.2 0.858,2.904 0.571996,0.704 1.319995,1.056 2.244,1.056 0.45466,0 0.879993,-0.0953 1.276,-0.286 0.395993,-0.20533 0.733326,-0.484 1.012,-0.836 0.293325,-0.36666 0.520658,-0.79933 0.682,-1.298 0.161324,-0.51333 0.241991,-1.078 0.242,-1.694 -9e-6,-0.61599 -0.07334,-1.18066 -0.22,-1.694 -0.146675,-0.51333 -0.359342,-0.95333 -0.638,-1.32 -0.278675,-0.36666 -0.616008,-0.65266 -1.012,-0.858 -0.396007,-0.20532 -0.836006,-0.30799 -1.32,-0.308 -0.968005,1e-5 -1.730671,0.36668 -2.288,1.1 -0.557336,0.73334 -0.836003,1.81134 -0.836,3.234"
         style="font-size:22px;fill:#0c5aa6"
         id="path5864"
         inkscape:connector-curvature="0" />
      <path
         d="m 47.004562,254.9075 2.816,0 0,5.676 c -3e-6,0.704 0.11733,1.20267 0.352,1.496 0.24933,0.29334 0.711329,0.44 1.386,0.44 0.997328,0 1.913994,-0.374 2.75,-1.122 l 0,-5.302 c -7e-6,-0.14666 -0.02934,-0.26399 -0.088,-0.352 -0.04401,-0.088 -0.13934,-0.15399 -0.286,-0.198 -0.132007,-0.0587 -0.330007,-0.10999 -0.594,-0.154 -0.264006,-0.044 -0.616006,-0.088 -1.056,-0.132 l 0,-0.352 3.454,0 0,6.468 c -9e-6,0.264 0.01466,0.47667 0.044,0.638 0.02932,0.14667 0.09532,0.25667 0.198,0.33 0.117324,0.0587 0.271324,0.10267 0.462,0.132 0.205324,0.0147 0.48399,0.022 0.836,0.022 -1e-5,0.0587 -1e-5,0.11734 0,0.176 0.01466,0.044 0.02199,0.0953 0.022,0.154 l -2.992,0.792 0,-1.672 c -0.660007,0.55734 -1.254006,0.98267 -1.782,1.276 -0.513338,0.27867 -1.034005,0.418 -1.562,0.418 -0.748003,0 -1.356669,-0.27133 -1.826,-0.814 -0.469335,-0.54266 -0.704001,-1.26133 -0.704,-2.156 l 0,-4.598 c -10e-7,-0.27866 -0.09533,-0.46932 -0.286,-0.572 -0.176001,-0.10266 -0.557334,-0.19799 -1.144,-0.286 l 0,-0.308"
         style="font-size:22px;fill:#0c5aa6"
         id="path5866"
         inkscape:connector-curvature="0" />
      <path
         d="m 58.413281,263.3555 0,-0.352 1.1,-0.198 c 0.293332,-0.0733 0.476665,-0.18333 0.55,-0.33 0.088,-0.14666 0.131998,-0.41066 0.132,-0.792 l 0,-4.224 c -2e-6,-0.29333 -0.066,-0.50599 -0.198,-0.638 -0.117335,-0.13199 -0.388668,-0.24199 -0.814,-0.33 l -0.594,-0.132 0.044,-0.33 c 0.571999,-0.20532 1.048665,-0.43999 1.43,-0.704 0.381331,-0.27866 0.718664,-0.72599 1.012,-1.342 l 0.396,0 c 0.02933,0.39601 0.05133,0.82868 0.066,1.298 0.01466,0.45468 0.022,0.94601 0.022,1.474 0.29333,-0.54266 0.696663,-1.04866 1.21,-1.518 0.513328,-0.49866 0.960661,-0.74799 1.342,-0.748 0.36666,1e-5 0.645327,0.10268 0.836,0.308 0.205326,0.20534 0.307993,0.45468 0.308,0.748 -7e-6,0.27868 -0.08067,0.49134 -0.242,0.638 -0.16134,0.14667 -0.35934,0.22001 -0.594,0.22 -0.234673,10e-6 -0.491339,-0.0587 -0.77,-0.176 -0.264005,-0.11732 -0.491338,-0.17599 -0.682,-0.176 -0.161338,1e-5 -0.330005,0.0807 -0.506,0.242 -0.161338,0.14667 -0.308004,0.33001 -0.44,0.55 -0.132004,0.22001 -0.242004,0.44734 -0.33,0.682 -0.088,0.22001 -0.132003,0.40334 -0.132,0.55 l 0,3.652 c -3e-6,0.38134 0.05866,0.638 0.176,0.77 0.131996,0.11734 0.403329,0.20534 0.814,0.264 l 1.694,0.242 0,0.352 c -0.396006,-0.0293 -0.836005,-0.0513 -1.32,-0.066 -0.484004,-0.0147 -1.00467,-0.022 -1.562,-0.022 l -0.286,0 c -0.513336,0 -0.990002,0.007 -1.43,0.022 -0.440001,0.0147 -0.850667,0.0367 -1.232,0.066"
         style="font-size:22px;fill:#0c5aa6"
         id="path5868"
         inkscape:connector-curvature="0" />
    </g>
    <g
       transform="translate(-105,-380.21282)"
       style="font-size:80px;font-style:normal;font-variant:normal;font-weight:bold;font-stretch:normal;text-align:start;line-height:125%;letter-spacing:0px;word-spacing:0px;writing-mode:lr-tb;text-anchor:start;fill:#0c5aa6;fill-opacity:1;stroke:none;font-family:STSong;-inkscape-font-specification:STSong Bold"
       id="flowRoot2995-8">
      <path
         d="m 181.176,414.215 c 1.82933,4e-5 3.36,4e-5 4.592,0 1.23199,-0.0373 2.16533,-0.0746 2.8,-0.112 l 7.952,-0.448 c 0.29865,-0.0373 0.57865,-0.056 0.84,-0.056 0.29865,4e-5 0.59732,4e-5 0.896,0 2.09065,4e-5 3.88264,0.29871 5.376,0.896 1.49331,0.59737 2.70664,1.38137 3.64,2.352 0.97064,0.93337 1.6613,2.0347 2.072,3.304 0.44797,1.23203 0.67197,2.4827 0.672,3.752 -3e-5,1.45603 -0.28003,2.81869 -0.84,4.088 -0.56003,1.26936 -1.34403,2.38936 -2.352,3.36 -0.97069,0.93335 -2.12802,1.68002 -3.472,2.24 -1.30669,0.52269 -2.72535,0.78402 -4.256,0.784 -2.35202,2e-5 -4.14401,-0.72798 -5.376,-2.184 l 0.336,-0.336 c 0.93332,0.33602 1.94132,0.50402 3.024,0.504 1.11998,2e-5 2.16531,-0.18665 3.136,-0.56 1.00798,-0.41065 1.86664,-0.97064 2.576,-1.68 0.74664,-0.70931 1.32531,-1.56798 1.736,-2.576 0.41064,-1.00797 0.61597,-2.12797 0.616,-3.36 -3e-5,-1.0453 -0.16802,-2.0533 -0.504,-3.024 -0.33602,-0.97063 -0.84002,-1.84797 -1.512,-2.632 -0.67202,-0.78397 -1.53069,-1.45596 -2.576,-2.016 -1.00802,-0.55996 -2.20269,-0.9333 -3.584,-1.12 -0.78402,-0.11196 -1.66135,-0.16796 -2.632,-0.168 -1.26935,4e-5 -2.25868,0.14937 -2.968,0.448 l 0,30.128 c -1e-5,0.56001 0.11199,0.97067 0.336,1.232 0.26132,0.22401 0.80265,0.42934 1.624,0.616 l 4.088,0.896 0,0.896 c -1.56802,-0.0747 -2.94935,-0.13066 -4.144,-0.168 -1.15735,-0.0373 -2.14668,-0.056 -2.968,-0.056 -1.60534,0 -4.27467,0.056 -8.008,0.168 l 0,-0.896 3.136,-0.448 c 0.55999,-0.112 0.93333,-0.31733 1.12,-0.616 0.18666,-0.29866 0.27999,-0.80266 0.28,-1.512 l 0,-26.712 c -1e-5,-1.41863 -0.44801,-2.37063 -1.344,-2.856 -0.85867,-0.4853 -2.296,-0.83996 -4.312,-1.064 l 0,-1.064"
         style="font-size:56px;line-height:125%;fill:#0c5aa6;font-family:STSong;-inkscape-font-specification:STSong Bold"
         id="path5851"
         inkscape:connector-curvature="0" />
      <path
         d="m 213.00937,449.439 0,-0.896 2.8,-0.504 c 0.74667,-0.18666 1.21333,-0.46666 1.4,-0.84 0.224,-0.37333 0.336,-1.04533 0.336,-2.016 l 0,-10.752 c 0,-0.74665 -0.168,-1.28798 -0.504,-1.624 -0.29867,-0.33598 -0.98933,-0.61598 -2.07199,-0.84 l -1.512,-0.336 0.11199,-0.84 c 1.456,-0.52264 2.66933,-1.11998 3.64,-1.792 0.97067,-0.70931 1.82933,-1.84797 2.576,-3.416 l 1.008,0 c 0.0747,1.00803 0.13066,2.10936 0.168,3.304 0.0373,1.15736 0.056,2.40802 0.056,3.752 0.74665,-1.38131 1.77332,-2.66931 3.07999,-3.864 1.30666,-1.26931 2.44532,-1.90397 3.416,-1.904 0.93332,3e-5 1.64265,0.26136 2.128,0.784 0.52265,0.52269 0.78399,1.15736 0.784,1.904 -1e-5,0.70936 -0.20535,1.25069 -0.616,1.624 -0.41068,0.37335 -0.91468,0.56002 -1.512,0.56 -0.59734,2e-5 -1.25068,-0.14931 -1.96,-0.448 -0.67201,-0.29865 -1.25068,-0.44798 -1.736,-0.448 -0.41067,2e-5 -0.84001,0.20535 -1.288,0.616 -0.41067,0.37335 -0.78401,0.84002 -1.12,1.4 -0.33601,0.56002 -0.616,1.13869 -0.84,1.736 -0.224,0.56002 -0.336,1.02668 -0.33599,1.4 l 0,9.296 c -1e-5,0.97067 0.14932,1.62401 0.44799,1.96 0.33599,0.29867 1.02666,0.52267 2.072,0.672 l 4.312,0.616 0,0.896 c -1.00801,-0.0747 -2.12801,-0.13066 -3.36,-0.168 -1.23201,-0.0373 -2.55734,-0.056 -3.976,-0.056 l -0.728,0 c -1.30667,0 -2.52,0.0187 -3.64,0.056 -1.12,0.0373 -2.16533,0.0933 -3.136,0.168"
         style="font-size:56px;line-height:125%;fill:#0c5aa6;font-family:STSong;-inkscape-font-specification:STSong Bold"
         id="path5853"
         inkscape:connector-curvature="0" />
      <path
         d="m 245.78775,450.111 c -1.64268,0 -3.17334,-0.28 -4.592,-0.84 -1.41867,-0.59733 -2.65067,-1.4 -3.696,-2.408 -1.04534,-1.04533 -1.88534,-2.27733 -2.52,-3.696 -0.59734,-1.41866 -0.896,-2.96799 -0.896,-4.648 0,-1.71732 0.29866,-3.28532 0.896,-4.704 0.63466,-1.41865 1.49333,-2.63198 2.576,-3.64 1.08266,-1.04531 2.35199,-1.84798 3.808,-2.408 1.49332,-0.59731 3.11732,-0.89597 4.872,-0.896 1.79198,3e-5 3.41598,0.31736 4.872,0.952 1.45598,0.59736 2.70664,1.43736 3.752,2.52 1.08264,1.04535 1.90398,2.29602 2.464,3.752 0.59731,1.41868 0.89597,2.93068 0.896,4.536 -3e-5,1.60535 -0.31736,3.11734 -0.952,4.536 -0.59736,1.38134 -1.45602,2.59467 -2.576,3.64 -1.08269,1.008 -2.38935,1.81067 -3.92,2.408 -1.53068,0.59734 -3.19202,0.896 -4.984,0.896 m -7.672,-11.144 c -1e-5,3.13601 0.72799,5.60001 2.184,7.392 1.45599,1.792 3.35999,2.688 5.712,2.688 1.15732,0 2.23998,-0.24266 3.248,-0.728 1.00798,-0.52266 1.86665,-1.23199 2.576,-2.128 0.74665,-0.93333 1.32531,-2.03466 1.736,-3.304 0.41064,-1.30666 0.61598,-2.74399 0.616,-4.312 -2e-5,-1.56798 -0.18669,-3.00532 -0.56,-4.312 -0.37335,-1.30665 -0.91469,-2.42665 -1.624,-3.36 -0.70935,-0.93331 -1.56802,-1.66131 -2.576,-2.184 -1.00802,-0.52264 -2.12802,-0.78398 -3.36,-0.784 -2.46401,2e-5 -4.40534,0.93336 -5.824,2.8 -1.41867,1.86669 -2.12801,4.61068 -2.128,8.232"
         style="font-size:56px;line-height:125%;fill:#0c5aa6;font-family:STSong;-inkscape-font-specification:STSong Bold"
         id="path5855"
         inkscape:connector-curvature="0" />
      <path
         d="m 270.47062,427.767 7.28001,0.168 0,1.96 -7.16801,0.224 0,14.056 c -1e-5,2.27734 0.78399,3.528 2.352,3.752 l 3.752,0.56 0,0.896 c -1.90401,-0.112 -3.88267,-0.168 -5.93599,-0.168 l -1.56801,0 c -2.688,0 -4.72267,0.056 -6.104,0.168 l 0,-0.84 1.736,-0.392 c 0.59733,-0.112 1.04533,-0.24266 1.34401,-0.392 0.29866,-0.14933 0.52266,-0.35466 0.67199,-0.616 0.14933,-0.26133 0.224,-0.57866 0.224,-0.952 0.0373,-0.41066 0.056,-0.93333 0.056,-1.568 l 0,-13.832 c -0.70934,-0.14931 -2.07201,-0.26131 -4.08801,-0.336 l 0,-0.84 c 0.82133,-0.33598 1.49333,-0.63464 2.01601,-0.896 0.52266,-0.29864 0.93332,-0.55998 1.23199,-0.784 0.29867,-0.22398 0.48533,-0.44797 0.56,-0.672 0.112,-0.22397 0.168,-0.48531 0.168,-0.784 0,-0.89597 0.14933,-2.07197 0.448,-3.528 0.29866,-1.4933 0.80266,-2.98663 1.512,-4.48 0.74666,-1.4933 1.73599,-2.81863 2.968,-3.976 1.26933,-1.19463 2.85599,-1.90396 4.76,-2.128 0.26132,-0.0373 0.52265,-0.056 0.784,-0.056 0.26132,-0.0373 0.54132,-0.056 0.84001,-0.056 3.09864,4e-5 4.64797,0.78404 4.64799,2.352 -2e-5,0.56004 -0.20535,1.00804 -0.616,1.344 -0.37335,0.33604 -0.87735,0.50404 -1.512,0.504 -0.22402,4e-5 -0.56001,-0.0746 -1.00799,-0.224 -0.44802,-0.18663 -0.93336,-0.3733 -1.45601,-0.56 -0.52268,-0.22396 -1.08268,-0.41063 -1.68,-0.56 -0.56001,-0.18663 -1.12001,-0.27996 -1.68,-0.28 -1.15734,4e-5 -2.05334,0.26137 -2.688,0.784 -0.63467,0.5227 -1.10134,1.21337 -1.39999,2.072 -0.26135,0.82137 -0.41068,1.77337 -0.44801,2.856 -0.0373,1.0827 -0.056,2.18403 -0.056,3.304 -10e-6,1.00803 -10e-6,1.84803 0,2.52 -10e-6,0.63469 0.0187,1.10136 0.056,1.4"
         style="font-size:56px;line-height:125%;fill:#0c5aa6;font-family:STSong;-inkscape-font-specification:STSong Bold"
         id="path5857"
         inkscape:connector-curvature="0" />
      <path
         d="m 296.52375,433.087 c -0.14935,-0.59731 -0.42935,-1.19465 -0.84,-1.792 -0.41068,-0.59731 -0.87735,-1.11998 -1.4,-1.568 -0.48535,-0.48531 -1.00801,-0.85864 -1.568,-1.12 -0.56001,-0.29864 -1.06401,-0.44798 -1.512,-0.448 -2.72534,2e-5 -4.08801,1.25069 -4.088,3.752 -10e-6,1.00802 0.44799,1.86669 1.344,2.576 0.89599,0.67202 2.25866,1.34402 4.088,2.016 4.21865,1.64268 6.32798,3.92001 6.328,6.832 -2e-5,1.04534 -0.20535,1.99734 -0.616,2.856 -0.41068,0.82134 -0.97068,1.53067 -1.68,2.128 -0.70935,0.56 -1.54935,1.008 -2.52,1.344 -0.93335,0.29867 -1.92268,0.448 -2.968,0.448 -2.65067,0 -4.85334,-0.48533 -6.608,-1.456 l -0.56,-6.328 0.952,0 c 0.26133,1.00801 0.63466,1.92267 1.12,2.744 0.48533,0.78401 1.02666,1.47467 1.624,2.072 0.59733,0.56 1.23199,1.008 1.904,1.344 0.70932,0.29867 1.39999,0.448 2.072,0.448 1.34399,0 2.42665,-0.37333 3.248,-1.12 0.82132,-0.74666 1.23198,-1.71733 1.232,-2.912 -2e-5,-2.16532 -1.75468,-3.88266 -5.264,-5.152 -2.46401,-0.93332 -4.23734,-1.90399 -5.32,-2.912 -1.04534,-1.04532 -1.568,-2.40798 -1.568,-4.088 0,-1.79198 0.728,-3.21064 2.184,-4.256 1.45599,-1.08264 3.26666,-1.62397 5.432,-1.624 2.27732,3e-5 4.18132,0.44803 5.712,1.344 l 0.336,4.872 -1.064,0"
         style="font-size:56px;line-height:125%;fill:#0c5aa6;font-family:STSong;-inkscape-font-specification:STSong Bold"
         id="path5859"
         inkscape:connector-curvature="0" />
    </g>
    <g
       transform="translate(-127,-77.662817)"
       style="font-size:40px;font-style:normal;font-weight:normal;line-height:125%;letter-spacing:0px;word-spacing:0px;fill:#0c5aa6;fill-opacity:1;stroke:none;font-family:Sans"
       id="flowRoot3003-9">
      <path
         d="m 278.434,108.771 c -0.35201,-0.0147 -0.74067,-0.0293 -1.166,-0.044 -0.42534,-0.0147 -0.85067,-0.022 -1.276,-0.022 -0.42534,0 -0.85067,0.007 -1.276,0.022 -0.42533,0.0147 -0.814,0.0293 -1.166,0.044 l 0,-0.352 1.364,-0.264 c 0.19066,-0.044 0.32266,-0.10266 0.396,-0.176 0.0733,-0.0733 0.11,-0.22 0.11,-0.44 l 0,-11.176 c 0,-0.307986 -0.088,-0.535319 -0.264,-0.682 -0.176,-0.146652 -0.56467,-0.307985 -1.166,-0.484 l 0,-0.286 c 0.58667,-0.117318 1.342,-0.359318 2.266,-0.726 l 0.506,0 0,13.31 c 0,0.27867 0.0293,0.462 0.088,0.55 0.0587,0.0733 0.198,0.132 0.418,0.176 l 1.166,0.198 0,0.352"
         style="font-size:22px;font-variant:normal;font-stretch:normal;fill:#0c5aa6;font-family:STSong;-inkscape-font-specification:STSong"
         id="path5844"
         inkscape:connector-curvature="0" />
      <path
         d="m 287.48563,103.183 -6.13801,0 c -0.044,0.29334 -0.066,0.58667 -0.066,0.88 -10e-6,0.57201 0.0807,1.1 0.24199,1.584 0.16134,0.46934 0.38867,0.87267 0.682,1.21 0.308,0.33734 0.67467,0.60134 1.10001,0.792 0.43999,0.19067 0.92399,0.286 1.452,0.286 0.51332,0 0.98265,-0.10266 1.40799,-0.308 0.42533,-0.20533 0.88733,-0.54266 1.386,-1.012 l 0.088,0.528 c -1.04135,1.276 -2.36868,1.914 -3.98201,1.914 -0.528,0 -1.02667,-0.11733 -1.49599,-0.352 -0.45467,-0.23467 -0.85067,-0.55 -1.188,-0.946 -0.33734,-0.41066 -0.60134,-0.88733 -0.79201,-1.43 -0.19066,-0.55733 -0.286,-1.15866 -0.286,-1.804 0,-0.64533 0.10267,-1.24666 0.308,-1.804 0.22,-0.55733 0.52067,-1.04132 0.902,-1.452 0.38134,-0.42532 0.82867,-0.75532 1.34201,-0.99 0.51332,-0.23466 1.07799,-0.35199 1.69399,-0.352 0.46933,10e-6 0.902,0.08068 1.298,0.242 0.396,0.14668 0.74066,0.36668 1.03401,0.66 0.30799,0.27868 0.54265,0.62334 0.70399,1.034 0.176,0.39601 0.27866,0.83601 0.30801,1.32 m -6.02801,-0.462 3.344,0 c 0.46933,1e-5 0.814,-0.0293 1.034,-0.088 0.23466,-0.0733 0.29333,-0.30799 0.176,-0.704 -0.11734,-0.38132 -0.32267,-0.72599 -0.616,-1.034 -0.27867,-0.30799 -0.704,-0.46199 -1.276,-0.462 -0.704,10e-6 -1.29067,0.20534 -1.76,0.616 -0.45466,0.41068 -0.75533,0.96801 -0.902,1.672"
         style="font-size:22px;font-variant:normal;font-stretch:normal;fill:#0c5aa6;font-family:STSong;-inkscape-font-specification:STSong"
         id="path5846"
         inkscape:connector-curvature="0" />
      <path
         d="m 294.67172,102.369 c -0.0587,-0.23466 -0.16867,-0.46933 -0.33,-0.704 -0.16134,-0.23466 -0.34467,-0.43999 -0.55,-0.616 -0.19067,-0.19066 -0.39601,-0.33732 -0.616,-0.44 -0.22001,-0.11732 -0.41801,-0.17599 -0.594,-0.176 -1.07067,10e-6 -1.606,0.49134 -1.606,1.474 0,0.39601 0.176,0.73334 0.528,1.012 0.352,0.26401 0.88733,0.52801 1.606,0.792 1.65733,0.64534 2.48599,1.54 2.486,2.684 -10e-6,0.41067 -0.0807,0.78467 -0.242,1.122 -0.16134,0.32267 -0.38134,0.60134 -0.66,0.836 -0.27867,0.22 -0.60867,0.396 -0.99,0.528 -0.36667,0.11733 -0.75534,0.176 -1.166,0.176 -1.04134,0 -1.90667,-0.19067 -2.596,-0.572 l -0.22,-2.486 0.374,0 c 0.10266,0.396 0.24933,0.75534 0.44,1.078 0.19066,0.308 0.40333,0.57934 0.638,0.814 0.23466,0.22 0.484,0.396 0.748,0.528 0.27866,0.11733 0.54999,0.176 0.814,0.176 0.52799,0 0.95333,-0.14667 1.276,-0.44 0.32266,-0.29333 0.48399,-0.67466 0.484,-1.144 -1e-5,-0.85066 -0.68934,-1.52533 -2.068,-2.024 -0.968,-0.36666 -1.66467,-0.74799 -2.09,-1.144 -0.41067,-0.41066 -0.616,-0.94599 -0.616,-1.606 0,-0.70399 0.286,-1.26132 0.858,-1.672 0.572,-0.42532 1.28333,-0.63799 2.134,-0.638 0.89466,10e-6 1.64266,0.17601 2.244,0.528 l 0.132,1.914 -0.418,0"
         style="font-size:22px;font-variant:normal;font-stretch:normal;fill:#0c5aa6;font-family:STSong;-inkscape-font-specification:STSong"
         id="path5848"
         inkscape:connector-curvature="0" />
    </g>
    <rect
       style="fill:#0acf00;fill-opacity:1"
       id="rect4946-6-0"
       width="25"
       height="25"
       x="40"
       y="-42.362183"
       transform="scale(1,-1)"
       inkscape:export-filename="/Users/mkl/Desktop/plp_meteor.png"
       inkscape:export-xdpi="90"
       inkscape:export-ydpi="90" />
  </g>
</svg>
